<svg width="170" height="50" viewBox="0 0 170 50" fill="none" xmlns="http://www.w3.org/2000/svg">
<path d="M61.6364 12.2495C63.1084 12.2495 64.3884 12.4095 65.4764 12.7295C66.5644 13.0495 67.4818 13.4655 68.2284 13.9775C68.7191 14.3188 68.9858 14.7348 69.0284 15.2255C69.0711 15.7162 68.9431 16.1748 68.6444 16.6015C68.3671 17.0068 68.0044 17.2735 67.5564 17.4015C67.1084 17.5295 66.6604 17.4548 66.2124 17.1775C65.5298 16.7722 64.8364 16.4842 64.1324 16.3135C63.4284 16.1215 62.5644 16.0255 61.5404 16.0255C59.7698 16.0255 58.4044 16.6122 57.4444 17.7855C56.4844 18.9375 56.0044 20.8895 56.0044 23.6415V24.3135C56.0044 27.0015 56.4631 28.9428 57.3804 30.1375C58.2978 31.3108 59.6951 31.8975 61.5724 31.8975C62.6391 31.8975 63.5671 31.7802 64.3564 31.5455C65.1671 31.2895 65.9458 30.9162 66.6924 30.4255C67.1191 30.1268 67.5671 30.0202 68.0364 30.1055C68.5058 30.1695 68.9004 30.4255 69.2204 30.8735C69.5404 31.3215 69.6684 31.8122 69.6044 32.3455C69.5404 32.8788 69.2524 33.3268 68.7404 33.6895C67.8231 34.3508 66.7458 34.8522 65.5084 35.1935C64.2924 35.5348 62.9484 35.7055 61.4764 35.7055C59.9618 35.7055 58.6071 35.4922 57.4124 35.0655C56.2391 34.6388 55.2364 33.9775 54.4044 33.0815C53.5938 32.1855 52.9644 31.0442 52.5164 29.6575C52.0898 28.2495 51.8764 26.5748 51.8764 24.6335V23.3215C51.8764 21.3802 52.0898 19.7162 52.5164 18.3295C52.9644 16.9215 53.6044 15.7695 54.4364 14.8735C55.2684 13.9775 56.2924 13.3162 57.5084 12.8895C58.7244 12.4628 60.1004 12.2495 61.6364 12.2495ZM75.5309 11.6095C76.0216 11.6095 76.4589 11.7482 76.8429 12.0255C77.2483 12.2815 77.4509 12.6868 77.4509 13.2415V20.3775H77.5149C77.7709 19.9722 78.0909 19.6202 78.4749 19.3215C78.8589 19.0015 79.2749 18.7455 79.7229 18.5535C80.1923 18.3615 80.6829 18.2228 81.1949 18.1375C81.7069 18.0308 82.2083 17.9775 82.6989 17.9775C84.5763 17.9775 86.0696 18.5322 87.1789 19.6415C88.2883 20.7295 88.8429 22.3508 88.8429 24.5055V33.8495C88.8429 34.4255 88.6403 34.8522 88.2349 35.1295C87.8296 35.4068 87.3603 35.5455 86.8269 35.5455C86.3149 35.5455 85.8456 35.4068 85.4189 35.1295C85.0136 34.8522 84.8109 34.4255 84.8109 33.8495V25.3695C84.8109 24.6015 84.7256 23.9722 84.5549 23.4815C84.3843 22.9695 84.1496 22.5748 83.8509 22.2975C83.5523 21.9988 83.1896 21.7962 82.7629 21.6895C82.3576 21.5615 81.9203 21.4975 81.4509 21.4975C81.0456 21.4975 80.6189 21.5615 80.1709 21.6895C79.7229 21.8175 79.3069 22.0415 78.9229 22.3615C78.5603 22.6815 78.2509 23.1082 77.9949 23.6415C77.7603 24.1748 77.6429 24.8362 77.6429 25.6255V33.8495C77.6429 34.4255 77.4403 34.8522 77.0349 35.1295C76.6296 35.4068 76.1603 35.5455 75.6269 35.5455C75.1149 35.5455 74.6456 35.4068 74.2189 35.1295C73.8136 34.8522 73.6109 34.4255 73.6109 33.8495V13.2415C73.6109 12.6868 73.8029 12.2815 74.1869 12.0255C74.5923 11.7482 75.0403 11.6095 75.5309 11.6095ZM99.3099 28.0895C98.2433 28.0895 97.4966 28.2922 97.0699 28.6975C96.6646 29.1028 96.4619 29.6468 96.4619 30.3295V30.3935C96.4619 31.6308 97.2619 32.2495 98.8619 32.2495C100.121 32.2495 101.113 32.0362 101.838 31.6095C102.35 31.3108 102.713 30.9588 102.926 30.5535C103.161 30.1482 103.278 29.6042 103.278 28.9215V28.0895H99.3099ZM100.142 17.9775C101.166 17.9775 102.115 18.1055 102.99 18.3615C103.865 18.6175 104.611 18.9908 105.23 19.4815C105.87 19.9508 106.361 20.5375 106.702 21.2415C107.065 21.9242 107.246 22.7135 107.246 23.6095V34.0095C107.246 34.5428 107.054 34.9375 106.67 35.1935C106.307 35.4282 105.891 35.5455 105.422 35.5455C104.953 35.5455 104.526 35.4282 104.142 35.1935C103.779 34.9375 103.598 34.5428 103.598 34.0095V33.1775H103.566C103.395 33.5402 103.15 33.8602 102.83 34.1375C102.51 34.4148 102.126 34.6708 101.678 34.9055C101.251 35.1188 100.761 35.2895 100.206 35.4175C99.6513 35.5455 99.0966 35.6095 98.5419 35.6095C96.6219 35.6095 95.1393 35.1722 94.0939 34.2975C93.0699 33.4228 92.5579 32.1855 92.5579 30.5855V30.0735C92.5579 29.3482 92.6646 28.6762 92.8779 28.0575C93.1126 27.4388 93.4859 26.9055 93.9979 26.4575C94.5313 25.9882 95.2139 25.6255 96.0459 25.3695C96.8993 25.1135 97.9553 24.9855 99.2139 24.9855H103.246V24.5375C103.246 23.4495 102.99 22.6708 102.478 22.2015C101.987 21.7108 101.198 21.4655 100.11 21.4655C98.6593 21.4655 97.2939 21.8495 96.0139 22.6175C95.5873 22.8735 95.1606 22.9482 94.7339 22.8415C94.3286 22.7135 93.9979 22.4362 93.7419 22.0095C93.5073 21.6042 93.4113 21.1882 93.4539 20.7615C93.5179 20.3135 93.7633 19.9508 94.1899 19.6735C94.9579 19.1615 95.8539 18.7562 96.8779 18.4575C97.9233 18.1375 99.0113 17.9775 100.142 17.9775ZM120.886 12.2495C122.358 12.2495 123.638 12.4095 124.726 12.7295C125.814 13.0495 126.732 13.4655 127.478 13.9775C127.969 14.3188 128.236 14.7348 128.278 15.2255C128.321 15.7162 128.193 16.1748 127.894 16.6015C127.617 17.0068 127.254 17.2735 126.806 17.4015C126.358 17.5295 125.91 17.4548 125.462 17.1775C124.78 16.7722 124.086 16.4842 123.382 16.3135C122.678 16.1215 121.814 16.0255 120.79 16.0255C119.02 16.0255 117.654 16.6122 116.694 17.7855C115.734 18.9375 115.254 20.8895 115.254 23.6415V24.3135C115.254 27.0015 115.713 28.9428 116.63 30.1375C117.548 31.3108 118.945 31.8975 120.822 31.8975C121.889 31.8975 122.817 31.7802 123.606 31.5455C124.417 31.2895 125.196 30.9162 125.942 30.4255C126.369 30.1268 126.817 30.0202 127.286 30.1055C127.756 30.1695 128.15 30.4255 128.47 30.8735C128.79 31.3215 128.918 31.8122 128.854 32.3455C128.79 32.8788 128.502 33.3268 127.99 33.6895C127.073 34.3508 125.996 34.8522 124.758 35.1935C123.542 35.5348 122.198 35.7055 120.726 35.7055C119.212 35.7055 117.857 35.4922 116.662 35.0655C115.489 34.6388 114.486 33.9775 113.654 33.0815C112.844 32.1855 112.214 31.0442 111.766 29.6575C111.34 28.2495 111.126 26.5748 111.126 24.6335V23.3215C111.126 21.3802 111.34 19.7162 111.766 18.3295C112.214 16.9215 112.854 15.7695 113.686 14.8735C114.518 13.9775 115.542 13.3162 116.758 12.8895C117.974 12.4628 119.35 12.2495 120.886 12.2495ZM134.781 11.6095C135.272 11.6095 135.709 11.7482 136.093 12.0255C136.498 12.2815 136.701 12.6868 136.701 13.2415V20.3775H136.765C137.021 19.9722 137.341 19.6202 137.725 19.3215C138.109 19.0015 138.525 18.7455 138.973 18.5535C139.442 18.3615 139.933 18.2228 140.445 18.1375C140.957 18.0308 141.458 17.9775 141.949 17.9775C143.826 17.9775 145.32 18.5322 146.429 19.6415C147.538 20.7295 148.093 22.3508 148.093 24.5055V33.8495C148.093 34.4255 147.89 34.8522 147.485 35.1295C147.08 35.4068 146.61 35.5455 146.077 35.5455C145.565 35.5455 145.096 35.4068 144.669 35.1295C144.264 34.8522 144.061 34.4255 144.061 33.8495V25.3695C144.061 24.6015 143.976 23.9722 143.805 23.4815C143.634 22.9695 143.4 22.5748 143.101 22.2975C142.802 21.9988 142.44 21.7962 142.013 21.6895C141.608 21.5615 141.17 21.4975 140.701 21.4975C140.296 21.4975 139.869 21.5615 139.421 21.6895C138.973 21.8175 138.557 22.0415 138.173 22.3615C137.81 22.6815 137.501 23.1082 137.245 23.6415C137.01 24.1748 136.893 24.8362 136.893 25.6255V33.8495C136.893 34.4255 136.69 34.8522 136.285 35.1295C135.88 35.4068 135.41 35.5455 134.877 35.5455C134.365 35.5455 133.896 35.4068 133.469 35.1295C133.064 34.8522 132.861 34.4255 132.861 33.8495V13.2415C132.861 12.6868 133.053 12.2815 133.437 12.0255C133.842 11.7482 134.29 11.6095 134.781 11.6095ZM158.56 28.0895C157.493 28.0895 156.747 28.2922 156.32 28.6975C155.915 29.1028 155.712 29.6468 155.712 30.3295V30.3935C155.712 31.6308 156.512 32.2495 158.112 32.2495C159.371 32.2495 160.363 32.0362 161.088 31.6095C161.6 31.3108 161.963 30.9588 162.176 30.5535C162.411 30.1482 162.528 29.6042 162.528 28.9215V28.0895H158.56ZM159.392 17.9775C160.416 17.9775 161.365 18.1055 162.24 18.3615C163.115 18.6175 163.861 18.9908 164.48 19.4815C165.12 19.9508 165.611 20.5375 165.952 21.2415C166.315 21.9242 166.496 22.7135 166.496 23.6095V34.0095C166.496 34.5428 166.304 34.9375 165.92 35.1935C165.557 35.4282 165.141 35.5455 164.672 35.5455C164.203 35.5455 163.776 35.4282 163.392 35.1935C163.029 34.9375 162.848 34.5428 162.848 34.0095V33.1775H162.816C162.645 33.5402 162.4 33.8602 162.08 34.1375C161.76 34.4148 161.376 34.6708 160.928 34.9055C160.501 35.1188 160.011 35.2895 159.456 35.4175C158.901 35.5455 158.347 35.6095 157.792 35.6095C155.872 35.6095 154.389 35.1722 153.344 34.2975C152.32 33.4228 151.808 32.1855 151.808 30.5855V30.0735C151.808 29.3482 151.915 28.6762 152.128 28.0575C152.363 27.4388 152.736 26.9055 153.248 26.4575C153.781 25.9882 154.464 25.6255 155.296 25.3695C156.149 25.1135 157.205 24.9855 158.464 24.9855H162.496V24.5375C162.496 23.4495 162.24 22.6708 161.728 22.2015C161.237 21.7108 160.448 21.4655 159.36 21.4655C157.909 21.4655 156.544 21.8495 155.264 22.6175C154.837 22.8735 154.411 22.9482 153.984 22.8415C153.579 22.7135 153.248 22.4362 152.992 22.0095C152.757 21.6042 152.661 21.1882 152.704 20.7615C152.768 20.3135 153.013 19.9508 153.44 19.6735C154.208 19.1615 155.104 18.7562 156.128 18.4575C157.173 18.1375 158.261 17.9775 159.392 17.9775Z" fill="#3AD55F"/>
<path fill-rule="evenodd" clip-rule="evenodd" d="M21.475 30.1417C23.9159 32.2069 27.011 33.3381 30.2083 33.3333C37.6875 33.3333 43.75 27.2708 43.75 19.7917C43.75 12.3125 37.6875 6.25 30.2083 6.25C22.7292 6.25 16.6667 12.3125 16.6667 19.7917C16.6667 23.1198 17.8667 26.1667 19.8583 28.525L17.5583 28.125L6.84583 38.8375C6.05104 39.6323 6.05104 40.9208 6.84583 41.7146L8.28541 43.1542C9.0802 43.949 10.3687 43.949 11.1625 43.1542L21.875 32.4417L21.475 30.1417ZM18.75 19.7917C18.75 26.1198 23.8802 31.25 30.2083 31.25C36.5365 31.25 41.6667 26.1198 41.6667 19.7917C41.6667 13.4635 36.5365 8.33333 30.2083 8.33333C23.8802 8.33333 18.75 13.4635 18.75 19.7917ZM11.199 37.4302L18.2667 30.3625L19.4333 30.5656L19.6375 31.7333L12.549 38.8219L11.199 37.4302ZM11.076 40.2948L9.72395 41.6469L8.35312 40.276L9.72604 38.9031L11.076 40.2948Z" fill="#3AD55F"/>
<path d="M34.8732 22.7355H36.1413C36.5218 22.7355 36.7754 22.4819 36.7754 22.1014V20.1992C36.7754 19.6286 36.3316 19.1213 35.8243 18.9945C34.683 18.6775 32.9711 18.2971 32.9711 18.2971C32.9711 18.2971 32.1468 17.4094 31.5761 16.8387C31.2591 16.5851 30.8787 16.3949 30.4348 16.3949H25.9964C25.616 16.3949 25.2989 16.6485 25.1087 16.9655L24.221 18.8043C24.1371 19.0492 24.0942 19.3063 24.0942 19.5652V22.1014C24.0942 22.4819 24.3479 22.7355 24.7283 22.7355H25.9964" stroke="#3AD55F" stroke-width="1.26812" stroke-linecap="round" stroke-linejoin="round"/>
<path d="M27.2648 24.0036C27.9652 24.0036 28.5329 23.4359 28.5329 22.7355C28.5329 22.0352 27.9652 21.4674 27.2648 21.4674C26.5645 21.4674 25.9967 22.0352 25.9967 22.7355C25.9967 23.4359 26.5645 24.0036 27.2648 24.0036Z" stroke="#3AD55F" stroke-width="1.26812" stroke-linecap="round" stroke-linejoin="round"/>
<path d="M28.5328 22.7355H32.3372" stroke="#3AD55F" stroke-width="1.26812" stroke-linecap="round" stroke-linejoin="round"/>
<path d="M33.605 24.0036C34.3054 24.0036 34.8731 23.4359 34.8731 22.7355C34.8731 22.0352 34.3054 21.4674 33.605 21.4674C32.9047 21.4674 32.3369 22.0352 32.3369 22.7355C32.3369 23.4359 32.9047 24.0036 33.605 24.0036Z" stroke="#3AD55F" stroke-width="1.26812" stroke-linecap="round" stroke-linejoin="round"/>
</svg>
