<svg width="829" height="190" viewBox="0 0 829 190" fill="none" xmlns="http://www.w3.org/2000/svg">
<path d="M12.9 136.44C11.98 136.44 11.52 136.9 11.52 137.82V148.14C11.52 149.06 11.98 149.52 12.9 149.52C16.3 149.52 19.54 149.44 22.62 149.28C25.74 149.08 28.76 148.78 31.68 148.38C32.6 148.26 33.32 148.48 33.84 149.04C34.4 149.56 34.72 150.26 34.8 151.14C34.88 152.06 34.76 152.88 34.44 153.6C34.12 154.28 33.52 154.68 32.64 154.8C31.4 154.96 30.02 155.12 28.5 155.28C27.02 155.4 25.32 155.52 23.4 155.64C21.48 155.76 19.32 155.86 16.92 155.94C14.56 155.98 11.9 156 8.94 156C7.02 156 5.68 155.64 4.92 154.92C4.2 154.2 3.84 152.9 3.84 151.02V134.94C3.84 133.06 4.2 131.76 4.92 131.04C5.68 130.32 7.02 129.96 8.94 129.96H27.66C28.58 129.96 29.26 130.28 29.7 130.92C30.14 131.56 30.36 132.32 30.36 133.2C30.36 134.08 30.14 134.84 29.7 135.48C29.26 136.12 28.58 136.44 27.66 136.44H12.9ZM50.94 139.92C51.9 139.92 52.6 140.24 53.04 140.88C53.48 141.52 53.7 142.3 53.7 143.22C53.7 144.14 53.48 144.94 53.04 145.62C52.6 146.26 51.9 146.58 50.94 146.58H45.3V156.84C45.3 157.96 44.9 158.78 44.1 159.3C43.34 159.82 42.46 160.08 41.46 160.08C40.46 160.08 39.56 159.82 38.76 159.3C38 158.78 37.62 157.96 37.62 156.84V130.26C37.62 129.14 38 128.32 38.76 127.8C39.56 127.28 40.46 127.02 41.46 127.02C42.46 127.02 43.34 127.28 44.1 127.8C44.9 128.32 45.3 129.14 45.3 130.26V139.92H50.94ZM10.08 172.08C10.08 168.2 11.64 165.3 14.76 163.38C17.92 161.42 22.26 160.44 27.78 160.44C33.3 160.44 37.62 161.42 40.74 163.38C43.9 165.3 45.48 168.2 45.48 172.08C45.48 176 43.9 178.92 40.74 180.84C37.62 182.76 33.3 183.72 27.78 183.72C22.26 183.72 17.92 182.76 14.76 180.84C11.64 178.92 10.08 176 10.08 172.08ZM37.86 172.08C37.86 170.44 37.08 169.12 35.52 168.12C34 167.08 31.42 166.56 27.78 166.56C25.94 166.56 24.38 166.7 23.1 166.98C21.82 167.22 20.78 167.58 19.98 168.06C19.18 168.54 18.6 169.12 18.24 169.8C17.88 170.48 17.7 171.24 17.7 172.08C17.7 172.92 17.88 173.68 18.24 174.36C18.6 175.04 19.18 175.62 19.98 176.1C20.78 176.58 21.82 176.94 23.1 177.18C24.38 177.46 25.94 177.6 27.78 177.6C31.42 177.6 34 177.08 35.52 176.04C37.08 175.04 37.86 173.72 37.86 172.08ZM78.1294 138C78.1294 139.92 78.4294 141.58 79.0294 142.98C79.6294 144.34 80.6094 145.62 81.9694 146.82C83.2494 147.98 84.4494 149.02 85.5694 149.94C86.6894 150.82 87.6894 151.6 88.5694 152.28C89.4494 152.96 89.8694 153.74 89.8294 154.62C89.8294 155.46 89.5494 156.24 88.9894 156.96C88.7494 157.28 88.4494 157.58 88.0894 157.86C87.7294 158.1 87.3294 158.28 86.8894 158.4C86.4894 158.52 86.0494 158.56 85.5694 158.52C85.1294 158.44 84.7094 158.24 84.3094 157.92C83.5494 157.36 82.6494 156.66 81.6094 155.82C80.5694 154.94 79.4694 154 78.3094 153C77.6294 152.4 77.0494 151.88 76.5694 151.44C76.0894 151 75.6894 150.6 75.3694 150.24C75.0894 149.88 74.8694 149.56 74.7094 149.28C74.5494 148.96 74.4294 148.64 74.3494 148.32H74.2894C74.1294 149 73.7694 149.7 73.2094 150.42C72.6894 151.14 71.6694 152.16 70.1494 153.48C68.9894 154.52 67.8494 155.48 66.7294 156.36C65.6094 157.24 64.4694 158.12 63.3094 159C62.8694 159.32 62.4094 159.52 61.9294 159.6C61.4894 159.68 61.0494 159.66 60.6094 159.54C60.2094 159.42 59.8294 159.22 59.4694 158.94C59.1094 158.66 58.8094 158.36 58.5694 158.04C58.0494 157.36 57.7694 156.56 57.7294 155.64C57.6894 154.68 58.1294 153.86 59.0494 153.18C60.3294 152.22 61.5694 151.26 62.7694 150.3C63.9694 149.34 65.2094 148.28 66.4894 147.12C67.8494 145.92 68.8294 144.64 69.4294 143.28C70.0294 141.88 70.3294 140.22 70.3294 138.3V132.66C70.3294 131.5 70.7094 130.66 71.4694 130.14C72.2694 129.62 73.1894 129.36 74.2294 129.36C75.2694 129.36 76.1694 129.62 76.9294 130.14C77.7294 130.66 78.1294 131.5 78.1294 132.66V138ZM102.489 164.7C102.489 165.82 102.089 166.64 101.289 167.16C100.529 167.68 99.6494 167.94 98.6494 167.94C97.6494 167.94 96.7494 167.68 95.9494 167.16C95.1894 166.64 94.8094 165.82 94.8094 164.7V130.26C94.8094 129.14 95.1894 128.32 95.9494 127.8C96.7494 127.28 97.6494 127.02 98.6494 127.02C99.6494 127.02 100.529 127.28 101.289 127.8C102.089 128.32 102.489 129.14 102.489 130.26V164.7ZM71.4694 182.22C69.5494 182.22 68.2094 181.86 67.4494 181.14C66.7294 180.42 66.3694 179.12 66.3694 177.24V165.9C66.3694 164.78 66.7494 163.96 67.5094 163.44C68.3094 162.92 69.2294 162.66 70.2694 162.66C71.2694 162.66 72.1494 162.92 72.9094 163.44C73.7094 163.96 74.1094 164.78 74.1094 165.9V174.3C74.1094 175.22 74.5694 175.68 75.4894 175.68H101.109C102.029 175.68 102.709 176 103.149 176.64C103.589 177.28 103.809 178.06 103.809 178.98C103.809 179.86 103.589 180.62 103.149 181.26C102.709 181.9 102.029 182.22 101.109 182.22H71.4694ZM123.739 166.08C119.419 166.08 116.259 164.58 114.259 161.58C112.259 158.58 111.259 154.16 111.259 148.32C111.259 142.48 112.259 138.06 114.259 135.06C116.259 132.06 119.419 130.56 123.739 130.56C128.059 130.56 131.219 132.06 133.219 135.06C135.219 138.06 136.219 142.48 136.219 148.32C136.219 154.16 135.219 158.58 133.219 161.58C131.219 164.58 128.059 166.08 123.739 166.08ZM123.739 137.22C121.699 137.22 120.259 138.14 119.419 139.98C118.579 141.82 118.159 144.6 118.159 148.32C118.159 152.04 118.579 154.82 119.419 156.66C120.259 158.5 121.699 159.42 123.739 159.42C125.779 159.42 127.219 158.5 128.059 156.66C128.899 154.82 129.319 152.04 129.319 148.32C129.319 144.6 128.899 141.82 128.059 139.98C127.219 138.14 125.779 137.22 123.739 137.22ZM131.899 145.08H140.839V130.62C140.839 129.58 141.199 128.82 141.919 128.34C142.639 127.86 143.459 127.62 144.379 127.62C145.259 127.62 146.059 127.86 146.779 128.34C147.499 128.82 147.859 129.58 147.859 130.62V173.94C147.859 174.98 147.499 175.74 146.779 176.22C146.059 176.7 145.259 176.94 144.379 176.94C143.459 176.94 142.639 176.7 141.919 176.22C141.199 175.74 140.839 174.98 140.839 173.94V151.56H131.899V145.08ZM151.759 130.02C151.759 128.98 152.119 128.22 152.839 127.74C153.559 127.26 154.379 127.02 155.299 127.02C156.219 127.02 157.039 127.26 157.759 127.74C158.479 128.22 158.839 128.98 158.839 130.02V176.46C158.839 177.5 158.479 178.26 157.759 178.74C157.039 179.22 156.219 179.46 155.299 179.46C154.379 179.46 153.559 179.22 152.839 178.74C152.119 178.26 151.759 177.5 151.759 176.46V130.02ZM169.528 138.06C168.608 138.06 167.928 137.74 167.488 137.1C167.048 136.46 166.828 135.7 166.828 134.82C166.828 133.9 167.048 133.12 167.488 132.48C167.928 131.84 168.608 131.52 169.528 131.52H183.868C185.788 131.52 187.108 131.88 187.828 132.6C188.588 133.32 188.968 134.62 188.968 136.5V142.86C188.968 144.7 188.908 146.3 188.788 147.66C188.668 149.02 188.408 150.3 188.008 151.5C187.648 152.66 187.088 153.78 186.328 154.86C185.608 155.9 184.608 157.02 183.328 158.22C182.088 159.38 180.528 160.66 178.648 162.06C176.768 163.46 174.508 165.1 171.868 166.98C171.068 167.54 170.208 167.7 169.288 167.46C168.368 167.18 167.648 166.68 167.128 165.96C166.888 165.6 166.688 165.2 166.528 164.76C166.368 164.32 166.288 163.88 166.288 163.44C166.288 162.96 166.368 162.52 166.528 162.12C166.728 161.72 167.048 161.38 167.488 161.1C169.768 159.54 171.688 158.18 173.248 157.02C174.848 155.86 176.168 154.82 177.208 153.9C178.248 152.98 179.068 152.12 179.668 151.32C180.268 150.52 180.708 149.7 180.988 148.86C181.268 148.02 181.428 147.12 181.468 146.16C181.548 145.16 181.588 143.98 181.588 142.62V139.44C181.588 138.52 181.128 138.06 180.208 138.06H169.528ZM185.548 145.08H195.088V130.62C195.088 129.58 195.448 128.82 196.168 128.34C196.888 127.86 197.708 127.62 198.628 127.62C199.508 127.62 200.308 127.86 201.028 128.34C201.748 128.82 202.108 129.58 202.108 130.62V173.94C202.108 174.98 201.748 175.74 201.028 176.22C200.308 176.7 199.508 176.94 198.628 176.94C197.708 176.94 196.888 176.7 196.168 176.22C195.448 175.74 195.088 174.98 195.088 173.94V151.56H185.548V145.08ZM206.368 130.02C206.368 128.98 206.728 128.22 207.448 127.74C208.168 127.26 208.988 127.02 209.908 127.02C210.828 127.02 211.648 127.26 212.368 127.74C213.088 128.22 213.448 128.98 213.448 130.02V176.46C213.448 177.5 213.088 178.26 212.368 178.74C211.648 179.22 210.828 179.46 209.908 179.46C208.988 179.46 208.168 179.22 207.448 178.74C206.728 178.26 206.368 177.5 206.368 176.46V130.02ZM263.618 150.3C263.618 152.18 263.238 153.48 262.478 154.2C261.758 154.92 260.438 155.28 258.518 155.28H242.138C240.218 155.28 238.878 154.92 238.118 154.2C237.398 153.48 237.038 152.18 237.038 150.3V134.94C237.038 133.06 237.398 131.76 238.118 131.04C238.878 130.32 240.218 129.96 242.138 129.96H258.518C260.438 129.96 261.758 130.32 262.478 131.04C263.238 131.76 263.618 133.06 263.618 134.94V150.3ZM256.058 137.7C256.058 136.78 255.598 136.32 254.678 136.32H245.978C245.058 136.32 244.598 136.78 244.598 137.7V147.54C244.598 148.46 245.058 148.92 245.978 148.92H254.678C255.598 148.92 256.058 148.46 256.058 147.54V137.7ZM284.378 139.32C285.338 139.32 286.038 139.64 286.478 140.28C286.918 140.92 287.138 141.7 287.138 142.62C287.138 143.54 286.918 144.34 286.478 145.02C286.038 145.66 285.338 145.98 284.378 145.98H278.738V155.4C278.738 156.52 278.338 157.34 277.538 157.86C276.778 158.38 275.898 158.64 274.898 158.64C273.898 158.64 272.998 158.38 272.198 157.86C271.438 157.34 271.058 156.52 271.058 155.4V130.26C271.058 129.14 271.438 128.32 272.198 127.8C272.998 127.28 273.898 127.02 274.898 127.02C275.898 127.02 276.778 127.28 277.538 127.8C278.338 128.32 278.738 129.14 278.738 130.26V139.32H284.378ZM264.818 167.7C264.818 168.66 265.158 169.54 265.838 170.34C266.518 171.14 267.618 171.88 269.138 172.56C271.018 173.36 272.718 174.06 274.238 174.66C275.798 175.3 277.438 175.92 279.158 176.52C280.038 176.84 280.558 177.36 280.718 178.08C280.918 178.84 280.858 179.62 280.538 180.42C280.258 181.18 279.778 181.78 279.098 182.22C278.418 182.66 277.598 182.72 276.638 182.4C274.958 181.8 273.298 181.16 271.658 180.48C270.018 179.84 268.458 179.18 266.978 178.5C264.818 177.5 263.318 176.62 262.478 175.86C261.678 175.1 261.198 174.44 261.038 173.88H260.978C260.898 174.16 260.758 174.46 260.558 174.78C260.358 175.14 260.018 175.52 259.538 175.92C259.098 176.32 258.498 176.74 257.738 177.18C257.018 177.66 256.098 178.16 254.978 178.68C253.498 179.36 251.938 180.02 250.298 180.66C248.658 181.34 246.998 181.98 245.318 182.58C244.358 182.9 243.538 182.84 242.858 182.4C242.178 181.96 241.698 181.36 241.418 180.6C241.098 179.76 241.018 178.94 241.178 178.14C241.378 177.38 241.918 176.84 242.798 176.52C244.518 175.92 246.138 175.3 247.658 174.66C249.218 174.06 250.938 173.36 252.818 172.56C254.338 171.88 255.438 171.14 256.118 170.34C256.798 169.54 257.138 168.66 257.138 167.7V167.46H244.778C243.858 167.46 243.178 167.16 242.738 166.56C242.338 165.92 242.138 165.16 242.138 164.28C242.138 163.4 242.338 162.66 242.738 162.06C243.178 161.42 243.858 161.1 244.778 161.1H277.178C278.098 161.1 278.758 161.42 279.158 162.06C279.598 162.66 279.818 163.4 279.818 164.28C279.818 165.16 279.598 165.92 279.158 166.56C278.758 167.16 278.098 167.46 277.178 167.46H264.818V167.7ZM332.387 143.1C333.307 143.1 333.987 143.42 334.427 144.06C334.867 144.7 335.087 145.46 335.087 146.34C335.087 147.22 334.867 147.98 334.427 148.62C333.987 149.26 333.307 149.58 332.387 149.58H301.667C299.747 149.58 298.407 149.22 297.647 148.5C296.927 147.78 296.567 146.48 296.567 144.6V131.64C296.567 130.52 296.947 129.7 297.707 129.18C298.507 128.66 299.427 128.4 300.467 128.4C301.467 128.4 302.347 128.66 303.107 129.18C303.907 129.7 304.307 130.52 304.307 131.64V141.72C304.307 142.64 304.767 143.1 305.687 143.1H332.387ZM292.667 161.22C291.747 161.22 291.067 160.9 290.627 160.26C290.187 159.62 289.967 158.86 289.967 157.98C289.967 157.1 290.187 156.34 290.627 155.7C291.067 155.06 291.747 154.74 292.667 154.74H338.027C338.947 154.74 339.627 155.06 340.067 155.7C340.507 156.34 340.727 157.1 340.727 157.98C340.727 158.86 340.507 159.62 340.067 160.26C339.627 160.9 338.947 161.22 338.027 161.22H292.667ZM332.507 175.98C333.427 175.98 334.107 176.3 334.547 176.94C334.987 177.58 335.207 178.34 335.207 179.22C335.207 180.1 334.987 180.86 334.547 181.5C334.107 182.14 333.427 182.46 332.507 182.46H301.547C299.627 182.46 298.287 182.1 297.527 181.38C296.807 180.66 296.447 179.36 296.447 177.48V168.18C296.447 167.06 296.827 166.24 297.587 165.72C298.387 165.2 299.307 164.94 300.347 164.94C301.347 164.94 302.227 165.2 302.987 165.72C303.787 166.24 304.187 167.06 304.187 168.18V174.6C304.187 175.52 304.647 175.98 305.567 175.98H332.507ZM380.576 137.34C380.576 139.14 380.836 140.68 381.356 141.96C381.916 143.24 382.836 144.44 384.116 145.56C385.436 146.68 386.656 147.68 387.776 148.56C388.896 149.44 389.916 150.22 390.836 150.9C391.676 151.5 392.096 152.24 392.096 153.12C392.136 153.96 391.876 154.76 391.316 155.52C390.876 156.16 390.216 156.64 389.336 156.96C388.456 157.28 387.556 157.12 386.636 156.48C385.916 155.96 385.016 155.3 383.936 154.5C382.896 153.66 381.796 152.74 380.636 151.74C379.236 150.58 378.276 149.7 377.756 149.1C377.276 148.46 376.956 147.86 376.796 147.3H376.736C376.656 147.62 376.536 147.96 376.376 148.32C376.216 148.64 375.976 149 375.656 149.4C375.376 149.76 374.996 150.16 374.516 150.6C374.036 151.04 373.436 151.56 372.716 152.16C370.396 154.12 368.096 155.92 365.816 157.56C364.936 158.2 364.036 158.36 363.116 158.04C362.236 157.72 361.576 157.24 361.136 156.6C360.616 155.88 360.336 155.06 360.296 154.14C360.296 153.22 360.756 152.42 361.676 151.74C362.996 150.78 364.256 149.84 365.456 148.92C366.656 147.96 367.916 146.92 369.236 145.8C370.516 144.68 371.416 143.48 371.936 142.2C372.496 140.92 372.776 139.38 372.776 137.58V132.18C372.776 131.02 373.156 130.18 373.916 129.66C374.716 129.14 375.636 128.88 376.676 128.88C377.716 128.88 378.616 129.14 379.376 129.66C380.176 130.18 380.576 131.02 380.576 132.18V137.34ZM390.776 144.24C389.856 144.24 389.176 143.92 388.736 143.28C388.296 142.64 388.076 141.88 388.076 141C388.076 140.08 388.296 139.3 388.736 138.66C389.176 138.02 389.856 137.7 390.776 137.7H398.276V130.26C398.276 129.14 398.656 128.32 399.416 127.8C400.216 127.28 401.116 127.02 402.116 127.02C403.076 127.02 403.936 127.28 404.696 127.8C405.496 128.32 405.896 129.14 405.896 130.26V156.84C405.896 157.96 405.496 158.78 404.696 159.3C403.936 159.82 403.076 160.08 402.116 160.08C401.116 160.08 400.216 159.82 399.416 159.3C398.656 158.78 398.276 157.96 398.276 156.84V144.24H390.776ZM369.836 172.08C369.836 168.2 371.436 165.3 374.636 163.38C377.876 161.42 382.316 160.44 387.956 160.44C393.596 160.44 398.016 161.42 401.216 163.38C404.456 165.3 406.076 168.2 406.076 172.08C406.076 176 404.456 178.92 401.216 180.84C398.016 182.76 393.596 183.72 387.956 183.72C382.316 183.72 377.876 182.76 374.636 180.84C371.436 178.92 369.836 176 369.836 172.08ZM398.456 172.08C398.456 170.44 397.636 169.12 395.996 168.12C394.396 167.08 391.716 166.56 387.956 166.56C384.156 166.56 381.456 167.08 379.856 168.12C378.256 169.12 377.456 170.44 377.456 172.08C377.456 173.72 378.256 175.04 379.856 176.04C381.456 177.08 384.156 177.6 387.956 177.6C391.716 177.6 394.396 177.08 395.996 176.04C397.636 175.04 398.456 173.72 398.456 172.08ZM419.406 136.62C418.486 136.62 417.806 136.3 417.366 135.66C416.926 135.02 416.706 134.26 416.706 133.38C416.706 132.46 416.926 131.68 417.366 131.04C417.806 130.4 418.486 130.08 419.406 130.08H436.746C438.666 130.08 439.986 130.44 440.706 131.16C441.466 131.88 441.846 133.18 441.846 135.06V139.62C441.846 141.86 441.606 143.76 441.126 145.32C440.646 146.84 439.666 148.28 438.186 149.64C436.706 151 434.606 152.42 431.886 153.9C429.166 155.38 425.566 157.18 421.086 159.3C420.126 159.74 419.226 159.74 418.386 159.3C417.546 158.86 416.946 158.24 416.586 157.44C416.386 157.08 416.246 156.68 416.166 156.24C416.126 155.8 416.146 155.38 416.226 154.98C416.306 154.54 416.466 154.14 416.706 153.78C416.986 153.42 417.386 153.12 417.906 152.88C421.906 151.04 425.006 149.54 427.206 148.38C429.406 147.18 431.026 146.14 432.066 145.26C433.106 144.34 433.726 143.46 433.926 142.62C434.126 141.74 434.226 140.66 434.226 139.38V138C434.226 137.08 433.766 136.62 432.846 136.62H419.406ZM460.506 156.6C460.506 157.72 460.106 158.54 459.306 159.06C458.546 159.58 457.686 159.84 456.726 159.84C455.766 159.84 454.886 159.58 454.086 159.06C453.326 158.54 452.946 157.72 452.946 156.6V152.82H446.226C445.306 152.82 444.626 152.5 444.186 151.86C443.786 151.22 443.586 150.44 443.586 149.52C443.586 148.64 443.786 147.88 444.186 147.24C444.626 146.6 445.306 146.28 446.226 146.28H452.946V141.54H446.706C445.786 141.54 445.106 141.22 444.666 140.58C444.266 139.94 444.066 139.16 444.066 138.24C444.066 137.36 444.266 136.6 444.666 135.96C445.106 135.32 445.786 135 446.706 135H452.946V130.26C452.946 129.14 453.326 128.32 454.086 127.8C454.886 127.28 455.766 127.02 456.726 127.02C457.686 127.02 458.546 127.28 459.306 127.8C460.106 128.32 460.506 129.14 460.506 130.26V156.6ZM452.826 169.92C452.826 169 452.366 168.54 451.446 168.54H425.886C424.966 168.54 424.286 168.22 423.846 167.58C423.406 166.94 423.186 166.18 423.186 165.3C423.186 164.42 423.406 163.66 423.846 163.02C424.286 162.38 424.966 162.06 425.886 162.06H455.406C457.326 162.06 458.646 162.42 459.366 163.14C460.126 163.86 460.506 165.16 460.506 167.04V180.18C460.506 181.3 460.106 182.12 459.306 182.64C458.546 183.16 457.666 183.42 456.666 183.42C455.666 183.42 454.766 183.16 453.966 182.64C453.206 182.12 452.826 181.3 452.826 180.18V169.92ZM475.395 137.52C475.395 135.76 475.815 134.26 476.655 133.02C477.535 131.74 478.775 130.7 480.375 129.9C482.015 129.1 483.995 128.52 486.315 128.16C488.635 127.76 491.255 127.56 494.175 127.56C497.095 127.56 499.715 127.76 502.035 128.16C504.355 128.52 506.315 129.1 507.915 129.9C509.555 130.7 510.795 131.74 511.635 133.02C512.515 134.26 512.955 135.76 512.955 137.52C512.955 139.28 512.515 140.8 511.635 142.08C510.795 143.32 509.555 144.34 507.915 145.14C506.315 145.94 504.355 146.54 502.035 146.94C499.715 147.3 497.095 147.48 494.175 147.48C491.255 147.48 488.635 147.3 486.315 146.94C483.995 146.54 482.015 145.94 480.375 145.14C478.775 144.34 477.535 143.32 476.655 142.08C475.815 140.8 475.395 139.28 475.395 137.52ZM505.335 137.52C505.335 136.28 504.475 135.32 502.755 134.64C501.035 133.92 498.175 133.56 494.175 133.56C490.175 133.56 487.315 133.92 485.595 134.64C483.875 135.32 483.015 136.28 483.015 137.52C483.015 138.76 483.875 139.74 485.595 140.46C487.315 141.14 490.175 141.48 494.175 141.48C498.175 141.48 501.035 141.14 502.755 140.46C504.475 139.74 505.335 138.76 505.335 137.52ZM471.435 156.54C470.515 156.54 469.835 156.24 469.395 155.64C468.995 155.04 468.795 154.28 468.795 153.36C468.795 152.52 468.995 151.8 469.395 151.2C469.835 150.6 470.515 150.3 471.435 150.3H516.915C517.835 150.3 518.495 150.6 518.895 151.2C519.335 151.8 519.555 152.52 519.555 153.36C519.555 154.28 519.335 155.04 518.895 155.64C518.495 156.24 517.835 156.54 516.915 156.54H471.435ZM507.915 160.14C509.835 160.14 511.155 160.5 511.875 161.22C512.635 161.94 513.015 163.24 513.015 165.12V169.5C513.015 171.38 512.635 172.68 511.875 173.4C511.155 174.12 509.835 174.48 507.915 174.48H483.555C482.955 174.48 482.655 174.78 482.655 175.38V176.46C482.655 177.06 482.955 177.36 483.555 177.36H511.755C512.595 177.36 513.215 177.66 513.615 178.26C514.015 178.86 514.215 179.54 514.215 180.3C514.215 181.1 514.015 181.78 513.615 182.34C513.215 182.94 512.595 183.24 511.755 183.24H480.315C478.395 183.24 477.055 182.88 476.295 182.16C475.575 181.44 475.215 180.14 475.215 178.26V173.82C475.215 171.94 475.575 170.64 476.295 169.92C477.055 169.2 478.395 168.84 480.315 168.84H504.675C505.275 168.84 505.575 168.54 505.575 167.94V166.92C505.575 166.32 505.275 166.02 504.675 166.02H477.555C476.715 166.02 476.095 165.74 475.695 165.18C475.295 164.58 475.095 163.88 475.095 163.08C475.095 162.32 475.295 161.64 475.695 161.04C476.095 160.44 476.715 160.14 477.555 160.14H507.915ZM541.944 139.8C541.024 139.8 540.344 139.48 539.904 138.84C539.464 138.2 539.244 137.44 539.244 136.56C539.244 135.68 539.464 134.92 539.904 134.28C540.344 133.64 541.024 133.32 541.944 133.32H551.244V129.66C551.244 128.54 551.624 127.72 552.384 127.2C553.184 126.68 554.084 126.42 555.084 126.42C556.084 126.42 556.964 126.68 557.724 127.2C558.524 127.72 558.924 128.54 558.924 129.66V133.32H567.624C568.544 133.32 569.224 133.64 569.664 134.28C570.104 134.92 570.324 135.68 570.324 136.56C570.324 137.44 570.104 138.2 569.664 138.84C569.224 139.48 568.544 139.8 567.624 139.8H558.924V141.18C558.924 142.7 559.184 143.96 559.704 144.96C560.264 145.96 561.124 146.88 562.284 147.72C563.684 148.72 564.964 149.6 566.124 150.36C567.284 151.12 568.224 151.72 568.944 152.16C569.784 152.68 570.264 153.4 570.384 154.32C570.504 155.2 570.324 156.02 569.844 156.78C569.404 157.42 568.744 157.92 567.864 158.28C567.024 158.6 566.124 158.46 565.164 157.86C564.364 157.34 563.464 156.76 562.464 156.12C561.464 155.48 560.484 154.82 559.524 154.14C558.004 153.1 556.944 152.26 556.344 151.62C555.744 150.98 555.364 150.4 555.204 149.88H555.144C554.984 150.56 554.564 151.26 553.884 151.98C553.244 152.66 552.164 153.52 550.644 154.56C549.444 155.36 548.304 156.12 547.224 156.84C546.144 157.56 544.984 158.3 543.744 159.06C543.304 159.34 542.864 159.5 542.424 159.54C541.984 159.54 541.564 159.46 541.164 159.3C540.764 159.14 540.404 158.92 540.084 158.64C539.764 158.36 539.504 158.06 539.304 157.74C538.864 156.98 538.664 156.16 538.704 155.28C538.744 154.36 539.224 153.62 540.144 153.06C541.424 152.26 542.684 151.46 543.924 150.66C545.164 149.86 546.484 148.96 547.884 147.96C549.044 147.12 549.884 146.2 550.404 145.2C550.964 144.2 551.244 142.94 551.244 141.42V139.8H541.944ZM587.424 139.92C588.384 139.92 589.084 140.24 589.524 140.88C589.964 141.52 590.184 142.3 590.184 143.22C590.184 144.14 589.964 144.94 589.524 145.62C589.084 146.26 588.384 146.58 587.424 146.58H581.784V156.6C581.784 157.72 581.384 158.54 580.584 159.06C579.824 159.58 578.944 159.84 577.944 159.84C576.944 159.84 576.044 159.58 575.244 159.06C574.484 158.54 574.104 157.72 574.104 156.6V130.26C574.104 129.14 574.484 128.32 575.244 127.8C576.044 127.28 576.944 127.02 577.944 127.02C578.944 127.02 579.824 127.28 580.584 127.8C581.384 128.32 581.784 129.14 581.784 130.26V139.92H587.424ZM567.864 168.6V168.84C567.864 169.76 568.244 170.56 569.004 171.24C569.764 171.88 570.864 172.48 572.304 173.04C574.184 173.8 575.844 174.44 577.284 174.96C578.764 175.48 580.364 176.02 582.084 176.58C582.884 176.86 583.424 177.38 583.704 178.14C583.984 178.9 583.964 179.68 583.644 180.48C583.324 181.24 582.844 181.84 582.204 182.28C581.564 182.72 580.764 182.78 579.804 182.46C578.204 181.94 576.664 181.42 575.184 180.9C573.704 180.38 572.184 179.8 570.624 179.16C568.224 178.2 566.564 177.32 565.644 176.52C564.764 175.76 564.244 175.1 564.084 174.54H564.024C563.864 175.14 563.324 175.84 562.404 176.64C561.484 177.48 559.824 178.38 557.424 179.34C555.864 179.98 554.344 180.56 552.864 181.08C551.384 181.6 549.844 182.12 548.244 182.64C547.284 182.96 546.484 182.9 545.844 182.46C545.204 182.02 544.724 181.4 544.404 180.6C544.084 179.8 544.044 179 544.284 178.2C544.564 177.4 545.124 176.86 545.964 176.58C547.684 176.02 549.264 175.48 550.704 174.96C552.184 174.44 553.864 173.8 555.744 173.04C557.184 172.48 558.284 171.88 559.044 171.24C559.804 170.56 560.184 169.76 560.184 168.84V168.6H547.824C546.904 168.6 546.224 168.3 545.784 167.7C545.384 167.06 545.184 166.32 545.184 165.48C545.184 164.6 545.384 163.86 545.784 163.26C546.224 162.62 546.904 162.3 547.824 162.3H580.224C581.144 162.3 581.804 162.62 582.204 163.26C582.644 163.86 582.864 164.6 582.864 165.48C582.864 166.32 582.644 167.06 582.204 167.7C581.804 168.3 581.144 168.6 580.224 168.6H567.864ZM593.614 148.32C593.614 142.36 594.814 137.84 597.214 134.76C599.614 131.68 603.214 130.14 608.014 130.14C612.814 130.14 616.414 131.68 618.814 134.76C621.214 137.84 622.414 142.36 622.414 148.32C622.414 154.28 621.214 158.8 618.814 161.88C616.414 164.96 612.814 166.5 608.014 166.5C603.214 166.5 599.614 164.96 597.214 161.88C594.814 158.8 593.614 154.28 593.614 148.32ZM615.034 148.32C615.034 144.52 614.514 141.66 613.474 139.74C612.434 137.78 610.614 136.8 608.014 136.8C605.414 136.8 603.594 137.78 602.554 139.74C601.514 141.66 600.994 144.52 600.994 148.32C600.994 152.12 601.514 155 602.554 156.96C603.594 158.88 605.414 159.84 608.014 159.84C610.614 159.84 612.434 158.88 613.474 156.96C614.514 155 615.034 152.12 615.034 148.32ZM642.034 144.72C642.994 144.72 643.694 145.04 644.134 145.68C644.574 146.32 644.794 147.1 644.794 148.02C644.794 148.94 644.574 149.74 644.134 150.42C643.694 151.06 642.994 151.38 642.034 151.38H636.394V176.22C636.394 177.34 635.994 178.16 635.194 178.68C634.434 179.2 633.554 179.46 632.554 179.46C631.554 179.46 630.654 179.2 629.854 178.68C629.094 178.16 628.714 177.34 628.714 176.22V130.26C628.714 129.14 629.094 128.32 629.854 127.8C630.654 127.28 631.554 127.02 632.554 127.02C633.554 127.02 634.434 127.28 635.194 127.8C635.994 128.32 636.394 129.14 636.394 130.26V144.72H642.034ZM659.203 158.52C657.283 158.52 655.943 158.16 655.183 157.44C654.463 156.72 654.103 155.42 654.103 153.54V132.78C654.103 131.7 654.503 130.9 655.303 130.38C656.103 129.82 656.983 129.54 657.943 129.54C658.903 129.54 659.783 129.82 660.583 130.38C661.383 130.9 661.783 131.7 661.783 132.78V138.6H684.223V132.78C684.223 131.7 684.623 130.9 685.423 130.38C686.223 129.82 687.103 129.54 688.063 129.54C689.023 129.54 689.903 129.82 690.703 130.38C691.503 130.9 691.903 131.7 691.903 132.78V153.54C691.903 155.42 691.523 156.72 690.763 157.44C690.043 158.16 688.723 158.52 686.803 158.52H659.203ZM682.843 152.1C683.763 152.1 684.223 151.64 684.223 150.72V145.02H661.783V150.72C661.783 151.64 662.243 152.1 663.163 152.1H682.843ZM650.323 174.54C649.403 174.54 648.723 174.22 648.283 173.58C647.843 172.94 647.623 172.18 647.623 171.3C647.623 170.42 647.843 169.66 648.283 169.02C648.723 168.38 649.403 168.06 650.323 168.06H669.163V154.86H676.843V168.06H695.683C696.603 168.06 697.283 168.38 697.723 169.02C698.163 169.66 698.383 170.42 698.383 171.3C698.383 172.18 698.163 172.94 697.723 173.58C697.283 174.22 696.603 174.54 695.683 174.54H650.323ZM712.133 133.44C712.133 132.32 712.513 131.5 713.273 130.98C714.073 130.46 714.973 130.2 715.973 130.2C716.973 130.2 717.853 130.46 718.613 130.98C719.413 131.5 719.813 132.32 719.813 133.44V142.02C719.813 144.42 720.073 146.48 720.593 148.2C721.113 149.92 722.013 151.56 723.293 153.12C724.213 154.28 725.133 155.38 726.053 156.42C727.013 157.46 727.833 158.36 728.513 159.12C729.193 159.84 729.453 160.68 729.293 161.64C729.173 162.6 728.793 163.36 728.153 163.92C727.473 164.52 726.673 164.84 725.753 164.88C724.833 164.88 724.033 164.54 723.353 163.86C722.873 163.34 722.253 162.66 721.493 161.82C720.733 160.98 719.993 160.12 719.273 159.24C718.673 158.52 718.173 157.88 717.773 157.32C717.373 156.76 717.053 156.28 716.813 155.88C716.573 155.44 716.393 155.06 716.273 154.74C716.153 154.42 716.073 154.1 716.033 153.78H715.973C715.853 154.46 715.573 155.22 715.133 156.06C714.733 156.9 713.913 158.06 712.673 159.54C711.953 160.42 711.173 161.32 710.333 162.24C709.533 163.16 708.692 164.08 707.812 165C707.133 165.68 706.313 166 705.353 165.96C704.393 165.88 703.613 165.54 703.013 164.94C702.333 164.26 701.933 163.46 701.813 162.54C701.693 161.58 701.973 160.72 702.653 159.96C703.733 158.8 704.773 157.66 705.773 156.54C706.773 155.42 707.733 154.28 708.653 153.12C709.933 151.56 710.833 149.92 711.353 148.2C711.873 146.48 712.133 144.42 712.133 142.02V133.44ZM742.853 130.02C742.853 128.98 743.213 128.22 743.933 127.74C744.653 127.26 745.473 127.02 746.393 127.02C747.313 127.02 748.133 127.26 748.853 127.74C749.573 128.22 749.933 128.98 749.933 130.02V176.46C749.933 177.5 749.573 178.26 748.853 178.74C748.133 179.22 747.313 179.46 746.393 179.46C745.473 179.46 744.653 179.22 743.933 178.74C743.213 178.26 742.853 177.5 742.853 176.46V130.02ZM731.933 130.62C731.933 129.58 732.293 128.82 733.013 128.34C733.733 127.86 734.553 127.62 735.473 127.62C736.353 127.62 737.153 127.86 737.873 128.34C738.593 128.82 738.953 129.58 738.953 130.62V173.94C738.953 174.98 738.593 175.74 737.873 176.22C737.153 176.7 736.353 176.94 735.473 176.94C734.553 176.94 733.733 176.7 733.013 176.22C732.293 175.74 731.933 174.98 731.933 173.94V149.28H727.493C726.573 149.28 725.893 148.96 725.453 148.32C725.013 147.68 724.793 146.9 724.793 145.98C724.793 145.06 725.013 144.28 725.453 143.64C725.893 143 726.573 142.68 727.493 142.68H731.933V130.62ZM763.262 143.76C763.262 141.44 763.702 139.38 764.582 137.58C765.462 135.74 766.702 134.2 768.302 132.96C769.942 131.68 771.922 130.72 774.242 130.08C776.602 129.44 779.262 129.12 782.222 129.12C785.142 129.12 787.782 129.44 790.142 130.08C792.502 130.72 794.482 131.68 796.082 132.96C797.722 134.2 798.982 135.74 799.862 137.58C800.742 139.38 801.182 141.44 801.182 143.76C801.182 146.12 800.742 148.2 799.862 150C798.982 151.8 797.722 153.34 796.082 154.62C794.482 155.86 792.502 156.8 790.142 157.44C787.782 158.08 785.142 158.4 782.222 158.4C779.262 158.4 776.602 158.08 774.242 157.44C771.922 156.8 769.942 155.86 768.302 154.62C766.702 153.34 765.462 151.8 764.582 150C763.702 148.2 763.262 146.12 763.262 143.76ZM793.502 143.76C793.502 142.6 793.282 141.52 792.842 140.52C792.442 139.52 791.782 138.66 790.862 137.94C789.942 137.22 788.762 136.66 787.322 136.26C785.922 135.82 784.222 135.6 782.222 135.6C780.222 135.6 778.502 135.82 777.062 136.26C775.662 136.66 774.502 137.22 773.582 137.94C772.662 138.66 771.982 139.52 771.542 140.52C771.142 141.52 770.942 142.6 770.942 143.76C770.942 144.92 771.142 146 771.542 147C771.982 148 772.662 148.86 773.582 149.58C774.502 150.3 775.662 150.88 777.062 151.32C778.502 151.72 780.222 151.92 782.222 151.92C784.222 151.92 785.922 151.72 787.322 151.32C788.762 150.88 789.942 150.3 790.862 149.58C791.782 148.86 792.442 148 792.842 147C793.282 146 793.502 144.92 793.502 143.76ZM759.542 174.54C758.622 174.54 757.942 174.22 757.502 173.58C757.062 172.94 756.842 172.18 756.842 171.3C756.842 170.46 757.062 169.72 757.502 169.08C757.942 168.44 758.622 168.12 759.542 168.12H769.382V162.54C769.382 161.42 769.762 160.6 770.522 160.08C771.282 159.56 772.182 159.3 773.222 159.3C774.262 159.3 775.162 159.56 775.922 160.08C776.682 160.6 777.062 161.42 777.062 162.54V168.12H787.382V162.54C787.382 161.42 787.762 160.6 788.522 160.08C789.282 159.56 790.182 159.3 791.222 159.3C792.262 159.3 793.162 159.56 793.922 160.08C794.682 160.6 795.062 161.42 795.062 162.54V168.12H804.902C805.822 168.12 806.502 168.44 806.942 169.08C807.382 169.72 807.602 170.46 807.602 171.3C807.602 172.18 807.382 172.94 806.942 173.58C806.502 174.22 805.822 174.54 804.902 174.54H759.542ZM819.131 167.64C820.411 167.64 821.491 168.08 822.371 168.96C823.251 169.84 823.691 170.92 823.691 172.2C823.691 173.48 823.251 174.56 822.371 175.44C821.491 176.32 820.411 176.76 819.131 176.76C817.851 176.76 816.771 176.32 815.891 175.44C815.011 174.56 814.571 173.48 814.571 172.2C814.571 170.92 815.011 169.84 815.891 168.96C816.771 168.08 817.851 167.64 819.131 167.64ZM819.131 129.24C820.411 129.24 821.431 129.52 822.191 130.08C822.991 130.64 823.371 131.58 823.331 132.9L822.371 160.32C822.331 161.56 821.971 162.42 821.291 162.9C820.651 163.38 819.931 163.62 819.131 163.62C818.331 163.62 817.591 163.38 816.911 162.9C816.271 162.42 815.931 161.56 815.891 160.32L814.931 132.9C814.891 131.58 815.251 130.64 816.011 130.08C816.811 129.52 817.851 129.24 819.131 129.24Z" fill="white"/>
<path d="M314 92C325.009 96.272 347.745 109.615 351.835 129.154C351.86 129.271 352.043 129.276 352.05 129.157C353.298 110.158 363.368 71.246 394.5 61" stroke="#3AD55F" stroke-width="5" stroke-linecap="round"/>
<path d="M280.564 32.9034L281.2 36.5484C281.383 37.5992 281.599 38.5428 281.846 39.3794C282.127 40.2103 282.461 40.964 282.85 41.6406C283.271 42.3114 283.772 42.9515 284.352 43.5609C284.927 44.1374 285.619 44.7103 286.429 45.2796C287.547 46.0657 288.624 46.8083 289.66 47.5074C290.695 48.2064 291.648 48.8184 292.518 49.3434C293.239 49.7928 293.6 50.4065 293.6 51.1847C293.634 51.9572 293.45 52.649 293.049 53.2604C292.642 53.8389 292.092 54.2733 291.398 54.5635C290.699 54.8209 290.008 54.7385 289.325 54.3162C288.571 53.8726 287.734 53.3419 286.814 52.7241C285.888 52.0736 284.905 51.3823 283.864 50.6504C282.36 49.5932 281.337 48.7735 280.795 48.1912C280.248 47.5761 279.885 47.0473 279.706 46.6048L279.657 46.6134C279.643 46.9204 279.596 47.2331 279.516 47.5516C279.464 47.8314 279.34 48.1913 279.146 48.6312C278.98 49.0325 278.726 49.5167 278.385 50.0838C278.038 50.618 277.607 51.2515 277.092 51.9842C276.36 53.0255 275.625 54.0504 274.888 55.0589C274.15 56.0674 273.377 57.0651 272.568 58.0522C272.285 58.3722 271.969 58.5966 271.619 58.7253C271.27 58.854 270.908 58.917 270.536 58.9143C270.19 58.8731 269.839 58.7991 269.482 58.6922C269.152 58.5467 268.849 58.3627 268.573 58.1401C267.984 57.6678 267.606 57.0569 267.442 56.3074C267.277 55.5579 267.458 54.8496 267.984 54.1825C269.738 52.0155 271.355 49.8385 272.834 47.6517C273.403 46.8418 273.86 46.0683 274.206 45.3314C274.545 44.5616 274.783 43.7925 274.92 43.0243C275.089 42.2503 275.149 41.4278 275.098 40.5569C275.081 39.6802 274.98 38.7165 274.797 37.6657L274.161 34.0207L266.871 35.2927C266.116 35.4245 265.512 35.2592 265.059 34.7968C264.606 34.3345 264.316 33.7421 264.19 33.0197C264.059 32.2644 264.127 31.5926 264.397 31.0041C264.666 30.4157 265.179 30.0556 265.934 29.9238L286.523 26.3313C287.278 26.1995 287.882 26.3648 288.335 26.8272C288.788 27.2896 289.08 27.8984 289.212 28.6536C289.338 29.3761 289.267 30.0315 288.997 30.6199C288.727 31.2083 288.215 31.5684 287.46 31.7002L280.564 32.9034ZM305.015 34.5754C305.803 34.4379 306.424 34.6003 306.877 35.0627C307.33 35.525 307.622 36.1339 307.754 36.8891C307.886 37.6444 307.82 38.3326 307.556 38.9539C307.286 39.5423 306.757 39.9053 305.969 40.0428L301.339 40.8507L304.897 61.2426C305.058 62.162 304.847 62.8925 304.265 63.4339C303.715 63.9697 303.03 64.3092 302.209 64.4524C301.388 64.5957 300.612 64.5111 299.881 64.1989C299.183 63.8808 298.753 63.2621 298.593 62.3427L292.009 24.6127C291.849 23.6933 292.043 22.9657 292.593 22.4299C293.175 21.8885 293.877 21.5461 294.698 21.4029C295.518 21.2596 296.278 21.347 296.977 21.665C297.708 21.9773 298.154 22.5932 298.314 23.5126L300.385 35.3833L305.015 34.5754ZM319.75 35.2019C318.174 35.477 317.022 35.3734 316.295 34.8912C315.601 34.4032 315.119 33.3876 314.85 31.8442L313.466 23.9141C313.197 22.3707 313.306 21.2519 313.794 20.5577C314.315 19.8578 315.364 19.3703 316.94 19.0953L341.223 14.8582C341.978 14.7264 342.566 14.8946 342.986 15.3627C343.433 15.7922 343.717 16.3518 343.837 17.0413C343.963 17.7638 343.891 18.4192 343.622 19.0076C343.379 19.5575 342.881 19.8983 342.125 20.0301L321.142 23.6913C320.387 23.8231 320.075 24.2666 320.207 25.0219L320.817 28.519C320.949 29.2743 321.393 29.586 322.148 29.4542L343.623 25.707C344.379 25.5753 344.966 25.7434 345.386 26.2115C345.834 26.641 346.117 27.2006 346.238 27.8902C346.364 28.6126 346.292 29.268 346.022 29.8564C345.78 30.4063 345.281 30.7471 344.526 30.8789L319.75 35.2019ZM313.937 45.8091C313.182 45.9408 312.58 45.792 312.133 45.3624C311.713 44.8943 311.44 44.2991 311.314 43.5767C311.188 42.8542 311.246 42.2181 311.489 41.6682C311.758 41.0798 312.271 40.7197 313.026 40.5879L328.591 37.8721L327.439 31.2718L333.645 30.1889L334.797 36.7892L350.362 34.0733C351.117 33.9415 351.705 34.1097 352.125 34.5778C352.572 35.0073 352.858 35.5833 352.985 36.3057C353.111 37.0281 353.039 37.6835 352.769 38.272C352.527 38.8218 352.028 39.1626 351.273 39.2944L313.937 45.8091ZM319.023 56.3416C318.759 54.8311 318.878 53.4738 319.378 52.2699C319.906 51.0274 320.783 49.9438 322.009 49.0193C323.229 48.062 324.763 47.253 326.61 46.5923C328.452 45.8988 330.587 45.34 333.017 44.916C335.415 44.4977 337.597 44.3031 339.564 44.3319C341.559 44.3223 343.293 44.5612 344.765 45.0487C346.232 45.5033 347.407 46.2287 348.292 47.2249C349.203 48.1825 349.791 49.4165 350.054 50.927C350.318 52.4375 350.183 53.7976 349.65 55.0073C349.155 56.2441 348.294 57.3247 347.068 58.2492C345.848 59.2066 344.298 60.0185 342.418 60.6849C340.576 61.3784 338.457 61.9343 336.06 62.3526C333.63 62.7766 331.431 62.9741 329.464 62.9452C327.502 62.9492 325.785 62.7074 324.312 62.2199C322.846 61.7652 321.654 61.0427 320.736 60.0523C319.858 59.089 319.287 57.8521 319.023 56.3416ZM343.799 52.0185C343.592 50.8364 342.71 50.043 341.15 49.6384C339.624 49.228 337.202 49.3122 333.885 49.8909C330.569 50.4695 328.245 51.2133 326.915 52.1222C325.618 53.0253 325.072 54.0679 325.279 55.2501C325.485 56.4322 326.351 57.2285 327.878 57.6388C329.437 58.0435 331.875 57.9564 335.192 57.3777C338.508 56.799 340.815 56.0581 342.113 55.155C343.443 54.2462 344.005 53.2007 343.799 52.0185ZM370.738 19.91L371.151 22.2742C371.328 23.2922 371.532 24.1702 371.763 24.9083C371.993 25.6463 372.297 26.3208 372.674 26.9317C373.079 27.5041 373.549 28.065 374.084 28.6144C374.647 29.1252 375.334 29.6653 376.143 30.2345C377.3 31.0478 378.394 31.7875 379.424 32.4537C380.454 33.12 381.423 33.7291 382.331 34.2812C383.014 34.7034 383.358 35.3201 383.365 36.1311C383.398 36.9035 383.211 37.579 382.805 38.1575C382.398 38.736 381.845 39.154 381.145 39.4114C380.446 39.6688 379.755 39.5863 379.072 39.1641C378.318 38.7204 377.5 38.2033 376.619 37.6127C375.732 36.9892 374.768 36.3115 373.726 35.5796C372.961 35.0703 372.324 34.623 371.817 34.2378C371.343 33.8468 370.949 33.5265 370.634 33.2768C370.347 32.9885 370.118 32.7409 369.946 32.534C369.802 32.2885 369.693 32.0536 369.621 31.8295L369.571 31.8381C369.557 32.1451 369.507 32.4414 369.422 32.727C369.369 33.0069 369.259 33.3475 369.093 33.7488C368.92 34.1173 368.66 34.5686 368.314 35.1029C367.994 35.5985 367.56 36.2156 367.013 36.9541C366.275 37.9625 365.534 38.9546 364.791 39.9302C364.081 40.9001 363.318 41.8622 362.503 42.8164C361.938 43.4564 361.261 43.7438 360.471 43.6786C359.676 43.5805 359.002 43.3089 358.451 42.8637C357.894 42.3857 357.536 41.7883 357.377 41.0716C357.212 40.3221 357.396 39.6302 357.928 38.9959C358.824 37.926 359.658 36.8839 360.428 35.8697C361.226 34.817 362.031 33.7121 362.844 32.5551C363.414 31.7452 363.86 31.0074 364.184 30.3419C364.535 29.6377 364.787 28.9508 364.941 28.2811C365.122 27.5728 365.196 26.8324 365.162 26.0599C365.129 25.2875 365.024 24.3923 364.846 23.3743L364.434 21.0101L356.799 22.3422C356.044 22.474 355.44 22.3087 354.987 21.8463C354.534 21.384 354.244 20.7916 354.118 20.0691C353.987 19.3139 354.055 18.6421 354.325 18.0536C354.594 17.4652 355.107 17.1051 355.862 16.9733L363.497 15.6412L362.887 12.144C362.726 11.2246 362.921 10.497 363.47 9.96123C364.052 9.41975 364.754 9.07739 365.575 8.93415C366.396 8.79091 367.155 8.8783 367.854 9.19632C368.585 9.50861 369.031 10.1245 369.191 11.0439L369.802 14.5411L377.042 13.2777C377.797 13.1459 378.401 13.3112 378.854 13.7736C379.307 14.2359 379.6 14.8447 379.731 15.6C379.857 16.3224 379.786 16.9778 379.516 17.5663C379.247 18.1547 378.734 18.5148 377.979 18.6466L370.738 19.91ZM394.676 18.9307C395.464 18.7932 396.085 18.9556 396.538 19.418C396.991 19.8803 397.283 20.4891 397.415 21.2444C397.547 21.9997 397.481 22.6879 397.217 23.3092C396.947 23.8976 396.418 24.2606 395.63 24.3981L391 25.206L394.558 45.5979C394.719 46.5173 394.508 47.2478 393.926 47.7892C393.376 48.325 392.691 48.6645 391.87 48.8077C391.049 48.951 390.273 48.8664 389.542 48.5542C388.843 48.2361 388.414 47.6174 388.254 46.698L381.67 8.96802C381.51 8.04857 381.704 7.32098 382.254 6.78523C382.836 6.24375 383.538 5.90139 384.359 5.75815C385.179 5.61491 385.939 5.7023 386.637 6.02032C387.369 6.33261 387.815 6.94848 387.975 7.86792L390.046 19.7386L394.676 18.9307Z" fill="#3AD55F"/>
</svg>
